<?xml version="1.0" encoding="UTF-8"?>
<svg width="1024px" height="1024px" viewBox="0 0 1024 1024" version="1.1" xmlns="http://www.w3.org/2000/svg" xmlns:xlink="http://www.w3.org/1999/xlink">
    <title>MacOS App Icon</title>
    <g id="MacOS-App-Icon" stroke="none" stroke-width="1" fill="none" fill-rule="evenodd">
        <g id="Group-2" fill-rule="nonzero" stroke="#FFF1E9" stroke-width="24">
            <g id="Group" transform="translate(248.000000, 192.000000)">
                <path d="M270.915254,-12 C352.526599,-12 415.921962,8.58595833 459.477904,43.902356 C505.560193,81.2671872 530,135.202294 530,200.343344 L530,200.343344 L530,555.39627 C530,564.963441 525.738608,573.755029 518.596288,580.093172 C512.00558,585.94181 502.93698,589.656641 492.915254,589.656641 L492.915254,589.656641 L373.091021,589.656641 C371.868883,589.656641 371.690332,591.329086 371.239407,592.107037 C368.122592,597.484274 366.289854,605.223573 364.519369,613.058425 L364.187834,614.528026 C364.022133,615.262833 363.856308,615.997235 363.689352,616.729364 C361.279472,627.297091 358.739159,637.526391 355.06958,644.366092 C352.888815,648.430805 350.269157,651.566018 347.381903,653.75431 C343.73625,656.517403 339.592231,658 334.854253,658 C329.525331,658 323.206256,655.293883 317.297813,647.338382 C313.384838,642.069707 309.317657,634.153791 305.11988,625.786867 C304.800286,625.149858 304.479407,624.510286 304.161276,623.877514 L304.161276,623.877514 L303.455902,622.477165 C303.091797,621.755957 302.726763,621.033295 302.360488,620.311488 L301.626192,618.869695 C298.190893,612.153019 294.629431,605.644665 290.688673,601.219906 C282.337543,591.843097 275.504366,589.839392 269.367466,589.674464 L269.367466,589.674464 L268.851724,589.663584 C268.542849,589.6587 268.23597,589.656641 267.931034,589.656641 C249.964548,589.656641 234.833992,591.530021 221.47571,593.165711 C210.055194,594.564126 199.831348,595.781065 190.241768,595.781065 C134.886464,595.781065 82.452062,576.494493 44.9081746,541.459392 C10.1895155,509.060731 -12,463.207096 -12,406.25178 C-12,321.627289 -1.18995023,235.884467 4.66864137,189.506943 C5.70200505,181.326675 6.57893285,174.387424 7.20971763,168.917202 C12.5263479,122.810908 41.7199572,72.762398 94.706911,36.9252244 C137.78045,7.79288574 196.657023,-12 270.915254,-12 L270.915254,-12 Z" id="bubble"></path>
            </g>
        </g>
    </g>
</svg>