<?xml version="1.0" encoding="UTF-8"?>
<svg width="1024px" height="1024px" viewBox="0 0 1024 1024" version="1.1" xmlns="http://www.w3.org/2000/svg" xmlns:xlink="http://www.w3.org/1999/xlink">
    <title>MacOS App Icon</title>
    <defs>
        <path d="M273.384988,44 C398.847458,44 468,113.973734 468,218.934334 L468,218.934334 L468,528.956848 C468,539.64728 459.108959,548.393996 448.242131,548.393996 L448.242131,548.393996 L383.041162,548.393996 C357.355932,548.393996 359.331719,520.210131 338.585956,520.210131 C315.864407,520.210131 304.009685,562 223.990315,562 C125.200969,562 60,495.913696 60,398.727955 C60,312.232645 118.285714,242.258912 229.917676,242.258912 L229.917676,242.258912 L326.731235,242.258912 C332.658596,242.258912 336.610169,238.371482 336.610169,232.540338 L336.610169,232.540338 L336.610169,217.962477 C336.610169,182.003752 314.876513,162.566604 273.384988,162.566604 C235.845036,162.566604 217.075061,176.172608 210.159806,199.497186 C205.220339,212.131332 199.292978,213.103189 186.450363,213.103189 L186.450363,213.103189 L99.5157385,213.103189 C86.6731235,213.103189 79.7578692,204.356473 79.7578692,192.694184 C79.7578692,122.72045 149.898305,44 273.384988,44 Z M326.731235,348.19137 L252.639225,348.19137 C218.062954,348.19137 197.317191,367.628518 197.317191,396.78424 C197.317191,429.827392 222.014528,449.26454 260.542373,449.26454 C303.021792,449.26454 336.610169,427.883677 336.610169,382.206379 L336.610169,382.206379 L336.610169,358.881801 C336.610169,352.078799 331.670702,348.19137 326.731235,348.19137 L326.731235,348.19137 Z" id="path-1"></path>
    </defs>
    <g id="MacOS-App-Icon" stroke="none" stroke-width="1" fill="none" fill-rule="evenodd">
        <g id="Group-2" fill-rule="nonzero">
            <g id="Combined-Shape" transform="translate(248.000000, 192.000000)">
                <use fill="#FFFFFF" xlink:href="#path-1"></use>
                <use fill="#FFF1E9" xlink:href="#path-1"></use>
            </g>
        </g>
    </g>
</svg>