<?xml version="1.0" encoding="UTF-8"?>
<svg width="114px" height="114px" viewBox="0 0 114 114" version="1.1" xmlns="http://www.w3.org/2000/svg" xmlns:xlink="http://www.w3.org/1999/xlink">
    <title>iOS App Icon</title>
    <defs>
        <path d="M38.3341404,6 C56.1694915,6 66,15.8611632 66,30.6529081 L66,30.6529081 L66,74.3433396 C66,75.8499062 64.7360775,77.0825516 63.1912833,77.0825516 L63.1912833,77.0825516 L53.9225182,77.0825516 C50.2711864,77.0825516 50.5520581,73.1106942 47.6029056,73.1106942 C44.3728814,73.1106942 42.6876513,79 31.3123487,79 C17.2687651,79 8,69.6866792 8,55.9906191 C8,43.8011257 16.2857143,33.9399625 32.1549637,33.9399625 L32.1549637,33.9399625 L45.9176755,33.9399625 C46.7602906,33.9399625 47.3220339,33.3921201 47.3220339,32.5703565 L47.3220339,32.5703565 L47.3220339,30.5159475 C47.3220339,25.4484053 44.2324455,22.7091932 38.3341404,22.7091932 C32.9975787,22.7091932 30.3292978,24.6266417 29.346247,27.9136961 C28.6440678,29.6941839 27.8014528,29.8311445 25.9757869,29.8311445 L25.9757869,29.8311445 L13.6174334,29.8311445 C11.7917676,29.8311445 10.8087167,28.5984991 10.8087167,26.9549719 C10.8087167,17.0938086 20.779661,6 38.3341404,6 Z M45.9176755,48.8686679 L35.3849879,48.8686679 C30.4697337,48.8686679 27.5205811,51.6078799 27.5205811,55.7166979 C27.5205811,60.3733583 31.031477,63.1125704 36.5084746,63.1125704 C42.5472155,63.1125704 47.3220339,60.0994371 47.3220339,53.6622889 L47.3220339,53.6622889 L47.3220339,50.3752345 C47.3220339,49.4165103 46.6198547,48.8686679 45.9176755,48.8686679 L45.9176755,48.8686679 Z" id="path-1"></path>
    </defs>
    <g id="iOS-App-Icon" stroke="none" stroke-width="1" fill="none" fill-rule="evenodd">
        <rect id="Rectangle" fill="#6B3E50" x="0" y="0" width="114" height="114"></rect>
        <g id="Group" transform="translate(19.000000, 11.000000)" fill-rule="nonzero">
            <path d="M38.1791768,-3.5 C50.1985465,-3.5 59.5013144,-0.375298403 65.9058857,4.87254973 C72.802303,10.5234121 76.5,18.6672304 76.5,28.5318694 L76.5,28.5318694 L76.5,79.0966824 C76.5,80.9701431 75.6847258,82.698022 74.2982961,83.9413416 C73.0578647,85.0537331 71.3528665,85.7668901 69.464891,85.7668901 L69.464891,85.7668901 L53.6342843,85.7668901 C53.3688367,86.4772843 53.211647,87.3676471 53.0188787,88.2218952 C52.6399946,89.9009109 52.2159827,91.5155059 51.6399165,92.6005701 C51.1953999,93.4378507 50.6488788,94.0715235 50.0620795,94.5209638 C49.2262466,95.1611436 48.2750459,95.5 47.1898851,95.5 C46.0321782,95.5 44.577977,95.0470971 43.2530872,93.2443434 C42.6533534,92.4282964 42.0198753,91.2079625 41.3761558,89.9113646 C40.8157451,88.7825695 40.2636699,87.5499731 39.602861,86.8001688 C38.8733958,85.9724619 38.3000977,85.7668901 37.7586207,85.7668901 C35.3132432,85.7668901 33.2541508,86.0278451 31.4361037,86.2528115 C29.7446436,86.4621139 28.2302209,86.6390991 26.8101333,86.6390991 C18.5277603,86.6390991 10.6944563,83.702176 5.08125639,78.40875 C-0.141062498,73.4839372 -3.5,66.5203689 -3.5,57.8562907 C-3.5,45.7187729 -1.96876392,33.4205651 -1.13724913,26.7686528 C-0.992560034,25.6111759 -0.869726711,24.6293036 -0.78140573,23.8552878 C0.0166741612,16.8611798 4.34893706,9.23227357 12.3191918,3.78474888 C18.6405784,-0.535804346 27.2741105,-3.5 38.1791768,-3.5 L38.1791768,-3.5 Z" id="bubble" stroke="#FFF1E9" stroke-width="7"></path>
            <g id="Combined-Shape">
                <use fill="#FFFFFF" xlink:href="#path-1"></use>
                <use fill="#FFF1E9" xlink:href="#path-1"></use>
            </g>
        </g>
    </g>
</svg>